<?xml version="1.0" encoding="utf-8"?>
<!-- Generator: Adobe Illustrator 22.0.1, SVG Export Plug-In . SVG Version: 6.00 Build 0)  -->
<svg version="1.1" xmlns="http://www.w3.org/2000/svg" xmlns:xlink="http://www.w3.org/1999/xlink" x="0px" y="0px"
	 viewBox="0 0 1000 1000" style="enable-background:new 0 0 1000 1000;" xml:space="preserve">
<style type="text/css">
	.st0{fill:#95C121;}
	.st1{fill:none;stroke:#000000;stroke-miterlimit:10;}
	.st2{fill:none;}
	.st3{fill:none;stroke:#000000;stroke-width:3;stroke-miterlimit:10;}
	.st4{fill:#E6E1CE;}
</style>
<g id="Ebene_1">
	<g>
		<path class="st0" d="M483,275.7c4.3-3.4,11.4-3.4,15.7,0l5.4,4.3c4.3,3.4,12.1,4.6,17.2,2.7l6.5-2.4c5.2-1.9,11.9,0.3,14.9,4.9
			l3.8,5.7c3.1,4.6,10,8.1,15.5,7.9l6.9-0.3c5.5-0.2,11.2,3.9,12.7,9.2l1.9,6.6c1.5,5.3,7,10.8,12.3,12.3l6.6,1.9
			c5.3,1.5,9.4,7.2,9.2,12.7l-0.3,6.9c-0.2,5.5,3.3,12.5,7.9,15.5l5.7,3.8c4.6,3.1,6.8,9.8,4.9,14.9l-2.4,6.5
			c-1.9,5.2-0.7,12.9,2.7,17.2l4.3,5.4c3.4,4.3,3.4,11.4,0,15.7l-4.3,5.4c-3.4,4.3-4.6,12.1-2.7,17.2l2.4,6.5
			c1.9,5.2-0.3,11.9-4.9,14.9l-5.7,3.8c-4.6,3.1-8.1,10-7.9,15.5l0.3,6.9c0.2,5.5-3.9,11.2-9.2,12.7l-6.6,1.9
			c-5.3,1.5-10.8,7-12.3,12.3l-1.9,6.6c-1.5,5.3-7.2,9.4-12.7,9.2l-6.9-0.3c-5.5-0.2-12.5,3.3-15.5,7.9l-3.8,5.7
			c-3.1,4.6-9.8,6.8-14.9,4.9l-6.5-2.4c-5.2-1.9-12.9-0.7-17.2,2.7l-5.4,4.3c-4.3,3.4-11.4,3.4-15.7,0l-5.4-4.3
			c-4.3-3.4-12.1-4.6-17.2-2.7l-6.5,2.4c-5.2,1.9-11.9-0.3-14.9-4.9l-3.8-5.7c-3.1-4.6-10-8.1-15.5-7.9l-6.9,0.3
			c-5.5,0.2-11.2-3.9-12.7-9.2l-1.9-6.6c-1.5-5.3-7-10.8-12.3-12.3l-6.6-1.9c-5.3-1.5-9.4-7.2-9.2-12.7l0.3-6.9
			c0.2-5.5-3.3-12.5-7.9-15.5l-5.7-3.8c-4.6-3.1-6.8-9.8-4.9-14.9l2.4-6.5c1.9-5.2,0.7-12.9-2.7-17.2l-4.3-5.4
			c-3.4-4.3-3.4-11.4,0-15.7l4.3-5.4c3.4-4.3,4.6-12.1,2.7-17.2l-2.4-6.5c-1.9-5.2,0.3-11.9,4.9-14.9l5.7-3.8
			c4.6-3.1,8.1-10,7.9-15.5l-0.3-6.9c-0.2-5.5,3.9-11.2,9.2-12.7l6.6-1.9c5.3-1.5,10.8-7,12.3-12.3l1.9-6.6
			c1.5-5.3,7.2-9.4,12.7-9.2l6.9,0.3c5.5,0.2,12.5-3.3,15.5-7.9l3.8-5.7c3.1-4.6,9.8-6.8,14.9-4.9l6.5,2.4
			c5.2,1.9,12.9,0.7,17.2-2.7L483,275.7z"/>
		<path class="st1" d="M483,275.7c4.3-3.4,11.4-3.4,15.7,0l5.4,4.3c4.3,3.4,12.1,4.6,17.2,2.7l6.5-2.4c5.2-1.9,11.9,0.3,14.9,4.9
			l3.8,5.7c3.1,4.6,10,8.1,15.5,7.9l6.9-0.3c5.5-0.2,11.2,3.9,12.7,9.2l1.9,6.6c1.5,5.3,7,10.8,12.3,12.3l6.6,1.9
			c5.3,1.5,9.4,7.2,9.2,12.7l-0.3,6.9c-0.2,5.5,3.3,12.5,7.9,15.5l5.7,3.8c4.6,3.1,6.8,9.8,4.9,14.9l-2.4,6.5
			c-1.9,5.2-0.7,12.9,2.7,17.2l4.3,5.4c3.4,4.3,3.4,11.4,0,15.7l-4.3,5.4c-3.4,4.3-4.6,12.1-2.7,17.2l2.4,6.5
			c1.9,5.2-0.3,11.9-4.9,14.9l-5.7,3.8c-4.6,3.1-8.1,10-7.9,15.5l0.3,6.9c0.2,5.5-3.9,11.2-9.2,12.7l-6.6,1.9
			c-5.3,1.5-10.8,7-12.3,12.3l-1.9,6.6c-1.5,5.3-7.2,9.4-12.7,9.2l-6.9-0.3c-5.5-0.2-12.5,3.3-15.5,7.9l-3.8,5.7
			c-3.1,4.6-9.8,6.8-14.9,4.9l-6.5-2.4c-5.2-1.9-12.9-0.7-17.2,2.7l-5.4,4.3c-4.3,3.4-11.4,3.4-15.7,0l-5.4-4.3
			c-4.3-3.4-12.1-4.6-17.2-2.7l-6.5,2.4c-5.2,1.9-11.9-0.3-14.9-4.9l-3.8-5.7c-3.1-4.6-10-8.1-15.5-7.9l-6.9,0.3
			c-5.5,0.2-11.2-3.9-12.7-9.2l-1.9-6.6c-1.5-5.3-7-10.8-12.3-12.3l-6.6-1.9c-5.3-1.5-9.4-7.2-9.2-12.7l0.3-6.9
			c0.2-5.5-3.3-12.5-7.9-15.5l-5.7-3.8c-4.6-3.1-6.8-9.8-4.9-14.9l2.4-6.5c1.9-5.2,0.7-12.9-2.7-17.2l-4.3-5.4
			c-3.4-4.3-3.4-11.4,0-15.7l4.3-5.4c3.4-4.3,4.6-12.1,2.7-17.2l-2.4-6.5c-1.9-5.2,0.3-11.9,4.9-14.9l5.7-3.8
			c4.6-3.1,8.1-10,7.9-15.5l-0.3-6.9c-0.2-5.5,3.9-11.2,9.2-12.7l6.6-1.9c5.3-1.5,10.8-7,12.3-12.3l1.9-6.6
			c1.5-5.3,7.2-9.4,12.7-9.2l6.9,0.3c5.5,0.2,12.5-3.3,15.5-7.9l3.8-5.7c3.1-4.6,9.8-6.8,14.9-4.9l6.5,2.4
			c5.2,1.9,12.9,0.7,17.2-2.7L483,275.7z"/>
	</g>
</g>
<g id="Ebene_2">
	<circle class="st2" cx="489.7" cy="419" r="109.3"/>
	<circle class="st2" cx="489.1" cy="419.3" r="109.3"/>
	<circle class="st2" cx="489.5" cy="418.8" r="109.3"/>
	<circle class="st2" cx="489.1" cy="419.3" r="109.3"/>
	<circle class="st2" cx="489.5" cy="418.9" r="109.3"/>
	<circle class="st3" cx="489.2" cy="419.5" r="109.3"/>
	<g>
		<ellipse class="st4" cx="490.7" cy="293.7" rx="5" ry="5.3"/>
		<ellipse transform="matrix(0.9511 -0.309 0.309 0.9511 -70.3858 154.2531)" class="st4" cx="451.8" cy="299.3" rx="5" ry="5.3"/>
		<ellipse transform="matrix(0.809 -0.5878 0.5878 0.809 -106.6955 305.4157)" class="st4" cx="416.6" cy="316.9" rx="5" ry="5.3"/>
		<ellipse transform="matrix(0.5878 -0.809 0.809 0.5878 -118.4619 456.4246)" class="st4" cx="388.7" cy="344.5" rx="5" ry="5.3"/>
		<ellipse transform="matrix(0.309 -0.9511 0.9511 0.309 -104.6974 614.5372)" class="st4" cx="370.6" cy="379.3" rx="5" ry="5.3"/>
		<ellipse class="st4" cx="363.7" cy="419" rx="5.3" ry="5"/>
		<ellipse transform="matrix(0.9511 -0.309 0.309 0.9511 -123.262 136.5068)" class="st4" cx="369.3" cy="457.4" rx="5.3" ry="5"/>
		<ellipse transform="matrix(0.809 -0.5878 0.5878 0.809 -215.2171 321.3662)" class="st4" cx="386.9" cy="491.9" rx="5.3" ry="5"/>
		<ellipse transform="matrix(0.5878 -0.809 0.809 0.5878 -250.6316 549.2953)" class="st4" cx="413.7" cy="520.6" rx="5.3" ry="5"/>
		<ellipse transform="matrix(0.309 -0.9511 0.9511 0.309 -202.2326 800.0531)" class="st4" cx="449.5" cy="539.2" rx="5.3" ry="5"/>
		<ellipse class="st4" cx="487.4" cy="546.1" rx="5" ry="5.3"/>
		<ellipse transform="matrix(0.9511 -0.309 0.309 0.9511 -141.3788 188.7278)" class="st4" cx="525.1" cy="540.7" rx="5" ry="5.3"/>
		<ellipse transform="matrix(0.809 -0.5878 0.5878 0.809 -200.6572 429.6565)" class="st4" cx="560.8" cy="523.6" rx="5" ry="5.3"/>
		<ellipse transform="matrix(0.5878 -0.809 0.809 0.5878 -158.6211 681.046)" class="st4" cx="589" cy="496.2" rx="5" ry="5.3"/>
		<ellipse transform="matrix(0.309 -0.9511 0.9511 0.309 -20.2093 896.397)" class="st4" cx="606.8" cy="462.1" rx="5" ry="5.3"/>
		<ellipse class="st4" cx="614.2" cy="422.8" rx="5.3" ry="5"/>
		<ellipse transform="matrix(0.9511 -0.309 0.309 0.9511 -88.9963 206.9122)" class="st4" cx="608.7" cy="384.4" rx="5.3" ry="5"/>
		<ellipse transform="matrix(0.809 -0.5878 0.5878 0.809 -92.6297 414.8502)" class="st4" cx="592.1" cy="350" rx="5.3" ry="5"/>
		<ellipse transform="matrix(0.5878 -0.809 0.809 0.5878 -27.5045 589.6818)" class="st4" cx="564.9" cy="321.8" rx="5.3" ry="5"/>
		<ellipse transform="matrix(0.309 -0.9511 0.9511 0.309 81.435 713.5897)" class="st4" cx="531.8" cy="300.8" rx="5.3" ry="5"/>
	</g>
	<g>
		<rect x="389" y="397.7" class="st2" width="205.3" height="77.3"/>
		<path d="M424.6,403.6l-8.1,20c-2,4.8-3.5,8.1-4.5,9.9s-2.4,3.3-4,4.5c-2.4,1.8-5.1,2.8-8.2,2.8c-3.3,0-6-1-8-3.1s-3.1-4.8-3.1-8.1
			c0-4.4,1.6-8.2,4.9-11.5c1.7-1.8,3.9-3.2,6.5-4.3s5.2-1.6,7.7-1.6c1.2,0,2.2,0.3,3,0.8s1.1,1.3,1.1,2.2c0,1-0.4,1.7-1.2,2.3
			c-0.5,0.3-1.4,0.6-2.7,0.7c-3.1,0.3-5.6,1-7.5,2.1c-1.6,1-2.9,2.2-3.8,3.8s-1.4,3.1-1.4,4.9c0,1.8,0.5,3.1,1.4,4.1
			s2.2,1.5,3.8,1.5c1.9,0,3.5-0.8,4.9-2.4s2.9-4.5,4.6-8.6l8.1-20h-4.6c-2.2,0-3.2-0.8-3.2-2.3c0-1,0.4-1.8,1.1-2.4s1.8-0.9,3.2-0.9
			h15.4h0.6l1.6,0.4c0.7,0.4,1,1,1,1.9c0,1-0.4,1.8-1.1,2.4s-1.8,0.9-3.2,0.9H424.6z"/>
		<path d="M437.9,411.7c2.3,0,4.1,0.7,5.6,2.2s2.2,3.3,2.2,5.5c0,1.7-0.4,3.3-1.1,5s-1.8,3-3,3.9c-0.8,0.6-1.7,1.1-2.5,1.3
			s-2.1,0.4-3.6,0.4c-2.5,0-4.3-0.3-5.2-0.9c-2.1-1.4-3.1-3.6-3.1-6.4c0-3,1.1-5.5,3.2-7.7S434.9,411.7,437.9,411.7z M437.3,416.7
			c-1.2,0-2.2,0.6-3.2,1.7s-1.4,2.4-1.4,3.8c0,1.8,1,2.7,3,2.7c1.2,0,2.1-0.4,2.7-1.1c1.1-1.2,1.6-2.6,1.6-4.1
			c0-0.9-0.3-1.6-0.8-2.2S438.1,416.7,437.3,416.7z"/>
		<path d="M463,424.9h2.7c2,0,3,0.7,3,2.1c0,1-0.4,1.7-1.1,2.2s-1.7,0.8-2.9,0.8h-3.2c-1.2,0-2.1-0.5-2.7-1.5c-1,1-2.1,1.5-3.2,1.5
			h-3c-1.7,0-3.1-0.6-4.2-1.8s-1.6-2.8-1.6-4.7c0-3,1-5.7,3.1-8.1s4.4-3.6,6.9-3.6c1.9,0,3.4,0.7,4.5,2l5.2-12.8
			c0.9-2.2,2.1-3.3,3.7-3.3c0.7,0,1.2,0.2,1.7,0.6s0.7,1,0.7,1.6c0,0.5-0.1,1-0.4,1.6l-0.3,0.6L463,424.9z M454.4,425h0.9
			c1.1,0,1.8-0.4,2.1-1.3l1.8-4.3c0.2-0.5,0.3-0.9,0.3-1.2c0-0.5-0.2-0.9-0.6-1.2s-0.9-0.5-1.5-0.5c-1.2,0-2.4,0.7-3.4,2
			s-1.6,2.8-1.6,4.4C452.4,424.3,453.1,425,454.4,425z"/>
		<path d="M480.4,411.7c2.3,0,4.1,0.7,5.6,2.2s2.2,3.3,2.2,5.5c0,1.7-0.4,3.3-1.1,5s-1.8,3-3,3.9c-0.8,0.6-1.7,1.1-2.5,1.3
			s-2.1,0.4-3.6,0.4c-2.5,0-4.3-0.3-5.2-0.9c-2.1-1.4-3.1-3.6-3.1-6.4c0-3,1.1-5.5,3.2-7.7S477.5,411.7,480.4,411.7z M479.9,416.7
			c-1.2,0-2.2,0.6-3.2,1.7s-1.4,2.4-1.4,3.8c0,1.8,1,2.7,3,2.7c1.2,0,2.1-0.4,2.7-1.1c1.1-1.2,1.6-2.6,1.6-4.1
			c0-0.9-0.3-1.6-0.8-2.2S480.7,416.7,479.9,416.7z"/>
		<path d="M491.7,418h3.8h0.4c1.5,0,2.2,0.7,2.2,2c0,1.3-0.7,2-2.2,2h-0.4h-3.8h-0.4c-0.7,0-1.2-0.2-1.6-0.6s-0.6-0.9-0.6-1.5
			c0-0.6,0.2-1.1,0.6-1.4s0.9-0.6,1.6-0.6H491.7z"/>
		<path d="M534.2,418h-6.5l-7.8,13.4c-3.7,6.4-8,9.5-13,9.5c-3.1,0-5.7-1.1-7.7-3.3s-3.1-4.9-3.1-8.2c0-2.7,0.8-5.2,2.4-7.7
			s3.8-4.5,6.6-6.1c2.1-1.2,4.4-2,6.9-2.5s5.9-0.7,10.1-0.7h1.7l1.9-3.4c2.6-4.7,5.7-7.9,9.4-9.5c2.4-1,5.5-1.5,9.4-1.5
			c1,0,1.8,0.2,2.3,0.7s0.8,1,0.8,1.8c0,0.4-0.1,0.8-0.3,1.3l-0.2,0.5l-4,10.1h1.8h0.6c1.8,0,2.6,0.8,2.6,2.3c0,0.9-0.4,1.7-1.1,2.4
			s-1.6,1-2.6,1h-0.6h-3l-2.6,6.4h3.8h0.6c1.8,0,2.6,0.8,2.6,2.3c0,0.9-0.4,1.7-1.1,2.4s-1.6,1-2.6,1H541h-5c-1.3,0-2.4-0.3-3.3-1
			s-1.3-1.6-1.3-2.7c0-0.9,0.3-2.1,1-3.7L534.2,418z M520.6,418h-2c-4.5,0-8,0.8-10.6,2.5c-1.7,1.1-3,2.4-4,4
			c-1,1.6-1.5,3.2-1.5,4.8c0,1.5,0.5,2.8,1.4,3.8c1,1.1,2.1,1.6,3.5,1.6c2.4,0,4.4-1.6,6.3-4.7L520.6,418z M536.5,412.4l3.4-8.3
			c-1.7,0.1-3.1,0.6-4.2,1.6s-2.4,2.7-3.9,5.1l-1,1.6H536.5z"/>
		<path d="M553.8,428.1l-6.1,15c-0.8,2.1-2.1,3.1-3.7,3.1c-0.6,0-1.2-0.2-1.6-0.6s-0.7-0.9-0.7-1.5c0-0.5,0.2-1.2,0.6-2.2l11.3-27.8
			c0.6-1.4,1.6-2.1,3-2.1c1,0,1.8,0.5,2.3,1.4c1.1-1.2,2.4-1.7,4-1.7c1.6,0,3,0.6,4,1.9s1.5,2.9,1.5,4.9c0,3.8-1.2,7-3.6,9.4
			c-0.8,0.8-1.6,1.3-2.4,1.6s-2,0.4-3.5,0.4c-1.6,0-2.7-0.1-3.3-0.3S554.5,428.9,553.8,428.1z M555.8,423.4c0.4,0.7,0.8,1.1,1.1,1.3
			s0.9,0.3,1.7,0.3c1.1,0,2-0.4,2.6-1.2c1.3-1.7,1.9-3.4,1.9-5.2c0-1.5-0.7-2.3-2.2-2.3c-1.6,0-2.7,0.9-3.4,2.7
			c-0.1,0.2-0.1,0.4-0.2,0.5L555.8,423.4z"/>
		<path d="M574.8,428.1l-6.1,15c-0.8,2.1-2.1,3.1-3.7,3.1c-0.6,0-1.2-0.2-1.6-0.6s-0.7-0.9-0.7-1.5c0-0.5,0.2-1.2,0.6-2.2l11.3-27.8
			c0.6-1.4,1.6-2.1,3-2.1c1,0,1.8,0.5,2.3,1.4c1.1-1.2,2.4-1.7,4-1.7c1.6,0,3,0.6,4,1.9s1.5,2.9,1.5,4.9c0,3.8-1.2,7-3.6,9.4
			c-0.8,0.8-1.6,1.3-2.4,1.6s-2,0.4-3.5,0.4c-1.6,0-2.7-0.1-3.3-0.3S575.4,428.9,574.8,428.1z M576.7,423.4c0.4,0.7,0.8,1.1,1.1,1.3
			s0.9,0.3,1.7,0.3c1.1,0,2-0.4,2.6-1.2c1.3-1.7,1.9-3.4,1.9-5.2c0-1.5-0.7-2.3-2.2-2.3c-1.6,0-2.7,0.9-3.4,2.7
			c-0.1,0.2-0.1,0.4-0.2,0.5L576.7,423.4z"/>
	</g>
	<g>
	</g>
	<g>
	</g>
	<g>
	</g>
	<g>
	</g>
	<g>
	</g>
	<g>
	</g>
</g>
</svg>
