<svg xmlns="http://www.w3.org/2000/svg" xmlns:xlink="http://www.w3.org/1999/xlink" version="1.1" style="" xml:space="preserve" width="300.0000050663948" height="297.00000394880783"><rect id="backgroundrect" width="100%" height="100%" x="0" y="0" fill="none" stroke="none" class="" style=""/>
<style type="text/css">
	.st0{fill:#95C121;}
	.st1{fill:none;stroke:#000000;stroke-miterlimit:10;}
	.st2{fill:none;}
	.st3{fill:none;stroke:#000000;stroke-width:3;stroke-miterlimit:10;}
	.st4{fill:#E6E1CE;}
</style>


<g class="currentLayer" style=""><title>Layer 1</title><g id="Ebene_1" class="">
	<g id="svg_1">
		<path class="st0" d="M141.75,5.699999999999989 c4.3,-3.4 11.4,-3.4 15.7,0 l5.4,4.3 c4.3,3.4 12.1,4.6 17.2,2.7 l6.5,-2.4 c5.2,-1.9 11.9,0.30000000000000004 14.9,4.9 l3.8,5.7 c3.1,4.6 10,8.1 15.5,7.9 l6.9,-0.30000000000000004 c5.5,-0.2 11.2,3.9 12.7,9.2 l1.9,6.6 c1.5,5.3 7,10.8 12.3,12.3 l6.6,1.9 c5.3,1.5 9.4,7.2 9.2,12.7 l-0.30000000000000004,6.9 c-0.2,5.5 3.3,12.5 7.9,15.5 l5.7,3.8 c4.6,3.1 6.8,9.8 4.9,14.9 l-2.4,6.5 c-1.9,5.2 -0.7000000000000001,12.9 2.7,17.2 l4.3,5.4 c3.4,4.3 3.4,11.4 0,15.7 l-4.3,5.4 c-3.4,4.3 -4.6,12.1 -2.7,17.2 l2.4,6.5 c1.9,5.2 -0.30000000000000004,11.9 -4.9,14.9 l-5.7,3.8 c-4.6,3.1 -8.1,10 -7.9,15.5 l0.30000000000000004,6.9 c0.2,5.5 -3.9,11.2 -9.2,12.7 l-6.6,1.9 c-5.3,1.5 -10.8,7 -12.3,12.3 l-1.9,6.6 c-1.5,5.3 -7.2,9.4 -12.7,9.2 l-6.9,-0.30000000000000004 c-5.5,-0.2 -12.5,3.3 -15.5,7.9 l-3.8,5.7 c-3.1,4.6 -9.8,6.8 -14.9,4.9 l-6.5,-2.4 c-5.2,-1.9 -12.9,-0.7000000000000001 -17.2,2.7 l-5.4,4.3 c-4.3,3.4 -11.4,3.4 -15.7,0 l-5.4,-4.3 c-4.3,-3.4 -12.1,-4.6 -17.2,-2.7 l-6.5,2.4 c-5.2,1.9 -11.9,-0.30000000000000004 -14.9,-4.9 l-3.8,-5.7 c-3.1,-4.6 -10,-8.1 -15.5,-7.9 l-6.9,0.30000000000000004 c-5.5,0.2 -11.2,-3.9 -12.7,-9.2 l-1.9,-6.6 c-1.5,-5.3 -7,-10.8 -12.3,-12.3 l-6.6,-1.9 c-5.3,-1.5 -9.4,-7.2 -9.2,-12.7 l0.30000000000000004,-6.9 c0.2,-5.5 -3.3,-12.5 -7.9,-15.5 l-5.7,-3.8 c-4.6,-3.1 -6.8,-9.8 -4.9,-14.9 l2.4,-6.5 c1.9,-5.2 0.7000000000000001,-12.9 -2.7,-17.2 l-4.3,-5.4 c-3.4,-4.3 -3.4,-11.4 0,-15.7 l4.3,-5.4 c3.4,-4.3 4.6,-12.1 2.7,-17.2 l-2.4,-6.5 c-1.9,-5.2 0.30000000000000004,-11.9 4.9,-14.9 l5.7,-3.8 c4.6,-3.1 8.1,-10 7.9,-15.5 l-0.30000000000000004,-6.9 c-0.2,-5.5 3.9,-11.2 9.2,-12.7 l6.6,-1.9 c5.3,-1.5 10.8,-7 12.3,-12.3 l1.9,-6.6 c1.5,-5.3 7.2,-9.4 12.7,-9.2 l6.9,0.30000000000000004 c5.5,0.2 12.5,-3.3 15.5,-7.9 l3.8,-5.7 c3.1,-4.6 9.8,-6.8 14.9,-4.9 l6.5,2.4 c5.2,1.9 12.9,0.7000000000000001 17.2,-2.7 L141.75,5.699999999999989 z" id="svg_2"/>
		<path class="st1" d="M141.75,5.699999999999989 c4.3,-3.4 11.4,-3.4 15.7,0 l5.4,4.3 c4.3,3.4 12.1,4.6 17.2,2.7 l6.5,-2.4 c5.2,-1.9 11.9,0.30000000000000004 14.9,4.9 l3.8,5.7 c3.1,4.6 10,8.1 15.5,7.9 l6.9,-0.30000000000000004 c5.5,-0.2 11.2,3.9 12.7,9.2 l1.9,6.6 c1.5,5.3 7,10.8 12.3,12.3 l6.6,1.9 c5.3,1.5 9.4,7.2 9.2,12.7 l-0.30000000000000004,6.9 c-0.2,5.5 3.3,12.5 7.9,15.5 l5.7,3.8 c4.6,3.1 6.8,9.8 4.9,14.9 l-2.4,6.5 c-1.9,5.2 -0.7000000000000001,12.9 2.7,17.2 l4.3,5.4 c3.4,4.3 3.4,11.4 0,15.7 l-4.3,5.4 c-3.4,4.3 -4.6,12.1 -2.7,17.2 l2.4,6.5 c1.9,5.2 -0.30000000000000004,11.9 -4.9,14.9 l-5.7,3.8 c-4.6,3.1 -8.1,10 -7.9,15.5 l0.30000000000000004,6.9 c0.2,5.5 -3.9,11.2 -9.2,12.7 l-6.6,1.9 c-5.3,1.5 -10.8,7 -12.3,12.3 l-1.9,6.6 c-1.5,5.3 -7.2,9.4 -12.7,9.2 l-6.9,-0.30000000000000004 c-5.5,-0.2 -12.5,3.3 -15.5,7.9 l-3.8,5.7 c-3.1,4.6 -9.8,6.8 -14.9,4.9 l-6.5,-2.4 c-5.2,-1.9 -12.9,-0.7000000000000001 -17.2,2.7 l-5.4,4.3 c-4.3,3.4 -11.4,3.4 -15.7,0 l-5.4,-4.3 c-4.3,-3.4 -12.1,-4.6 -17.2,-2.7 l-6.5,2.4 c-5.2,1.9 -11.9,-0.30000000000000004 -14.9,-4.9 l-3.8,-5.7 c-3.1,-4.6 -10,-8.1 -15.5,-7.9 l-6.9,0.30000000000000004 c-5.5,0.2 -11.2,-3.9 -12.7,-9.2 l-1.9,-6.6 c-1.5,-5.3 -7,-10.8 -12.3,-12.3 l-6.6,-1.9 c-5.3,-1.5 -9.4,-7.2 -9.2,-12.7 l0.30000000000000004,-6.9 c0.2,-5.5 -3.3,-12.5 -7.9,-15.5 l-5.7,-3.8 c-4.6,-3.1 -6.8,-9.8 -4.9,-14.9 l2.4,-6.5 c1.9,-5.2 0.7000000000000001,-12.9 -2.7,-17.2 l-4.3,-5.4 c-3.4,-4.3 -3.4,-11.4 0,-15.7 l4.3,-5.4 c3.4,-4.3 4.6,-12.1 2.7,-17.2 l-2.4,-6.5 c-1.9,-5.2 0.30000000000000004,-11.9 4.9,-14.9 l5.7,-3.8 c4.6,-3.1 8.1,-10 7.9,-15.5 l-0.30000000000000004,-6.9 c-0.2,-5.5 3.9,-11.2 9.2,-12.7 l6.6,-1.9 c5.3,-1.5 10.8,-7 12.3,-12.3 l1.9,-6.6 c1.5,-5.3 7.2,-9.4 12.7,-9.2 l6.9,0.30000000000000004 c5.5,0.2 12.5,-3.3 15.5,-7.9 l3.8,-5.7 c3.1,-4.6 9.8,-6.8 14.9,-4.9 l6.5,2.4 c5.2,1.9 12.9,0.7000000000000001 17.2,-2.7 L141.75,5.699999999999989 z" id="svg_3"/>
	</g>
</g><g id="Ebene_2" class="">
	<circle class="st2" cx="148.45001220703125" cy="149" r="109.30000305175781" id="svg_4"/>
	<circle class="st2" cx="147.85000610351562" cy="149.29998779296875" r="109.30000305175781" id="svg_5"/>
	<circle class="st2" cx="148.25" cy="148.79998779296875" r="109.30000305175781" id="svg_6"/>
	<circle class="st2" cx="147.85000610351562" cy="149.29998779296875" r="109.30000305175781" id="svg_7"/>
	<circle class="st2" cx="148.25" cy="148.89999389648438" r="109.30000305175781" id="svg_8"/>
	<circle class="st3" cx="147.95001220703125" cy="149.5" r="109.30000305175781" id="svg_9"/>
	<g id="svg_10">
		<ellipse class="st4" cx="149.45001220703125" cy="23.70001220703125" rx="5" ry="5.300000190734863" id="svg_11"/>
		<ellipse transform="matrix(0.9511,-0.309,0.309,0.9511,-70.3858,154.2531) " class="st4" cx="210.68452374062795" cy="-62.91710651065159" rx="5" ry="5.300000190734863" id="svg_12"/>
		<ellipse transform="matrix(0.809,-0.5878,0.5878,0.809,-106.6955,305.4157) " class="st4" cx="299.2335636604604" cy="-102.12101335694933" rx="5" ry="5.300000190734863" id="svg_13"/>
		<ellipse transform="matrix(0.5878,-0.809,0.809,0.5878,-118.4619,456.4246) " class="st4" cx="406.54344349629315" cy="-90.28166738174065" rx="5" ry="5.300000190734863" id="svg_14"/>
		<ellipse transform="matrix(0.309,-0.9511,0.9511,0.309,-104.6974,614.5372) " class="st4" cx="521.939827854987" cy="-28.663428168764767" rx="5" ry="5.300000190734863" id="svg_15"/>
		<ellipse class="st4" cx="22.45001220703125" cy="149" rx="5.300000190734863" ry="5" id="svg_16"/>
		<ellipse transform="matrix(0.9511,-0.309,0.309,0.9511,-123.262,136.5068) " class="st4" cx="128.18452374062792" cy="95.18289959286403" rx="5.300000190734863" ry="5" id="svg_17"/>
		<ellipse transform="matrix(0.809,-0.5878,0.5878,0.809,-215.2171,321.3662) " class="st4" cx="269.53355145342914" cy="72.87898664305072" rx="5.300000190734863" ry="5" id="svg_18"/>
		<ellipse transform="matrix(0.5878,-0.809,0.809,0.5878,-250.6316,549.2953) " class="st4" cx="431.5434434962932" cy="85.81830820419685" rx="5.300000190734863" ry="5" id="svg_19"/>
		<ellipse transform="matrix(0.309,-0.9511,0.9511,0.309,-202.2326,800.0531) " class="st4" cx="600.8398217514713" cy="131.23659624529785" rx="5.300000190734863" ry="5" id="svg_20"/>
		<ellipse class="st4" cx="146.14999389648438" cy="276.0999755859375" rx="5" ry="5.300000190734863" id="svg_21"/>
		<ellipse transform="matrix(0.9511,-0.309,0.309,0.9511,-141.3788,188.7278) " class="st4" cx="283.9845115335967" cy="178.4829179034109" rx="5" ry="5.300000190734863" id="svg_22"/>
		<ellipse transform="matrix(0.809,-0.5878,0.5878,0.809,-200.6572,429.6565) " class="st4" cx="443.4335453499136" cy="104.57896833250385" rx="5" ry="5.300000190734863" id="svg_23"/>
		<ellipse transform="matrix(0.5878,-0.809,0.809,0.5878,-158.6211,681.046) " class="st4" cx="606.8434312892618" cy="61.418344825290546" rx="5" ry="5.300000190734863" id="svg_24"/>
		<ellipse transform="matrix(0.309,-0.9511,0.9511,0.309,-20.2093,896.397) " class="st4" cx="758.1398095444401" cy="54.13659014178222" rx="5" ry="5.300000190734863" id="svg_25"/>
		<ellipse class="st4" cx="272.95001220703125" cy="152.79998779296875" rx="5.300000190734863" ry="5" id="svg_26"/>
		<ellipse transform="matrix(0.9511,-0.309,0.309,0.9511,-88.9963,206.9122) " class="st4" cx="367.5845481546904" cy="22.182899592864032" rx="5.300000190734863" ry="5" id="svg_27"/>
		<ellipse transform="matrix(0.809,-0.5878,0.5878,0.809,-92.6297,414.8502) " class="st4" cx="474.7335331428822" cy="-69.02100725343371" rx="5.300000190734863" ry="5" id="svg_28"/>
		<ellipse transform="matrix(0.5878,-0.809,0.809,0.5878,-27.5045,589.6818) " class="st4" cx="582.7434557033243" cy="-112.98167958877184" rx="5.300000190734863" ry="5" id="svg_29"/>
		<ellipse transform="matrix(0.309,-0.9511,0.9511,0.309,81.435,713.5897) " class="st4" cx="683.1398095444401" cy="-107.16342816876465" rx="5.300000190734863" ry="5" id="svg_30"/>
	</g>
	<g id="svg_31">
		<rect x="47.75" y="127.70001220703125" class="st2" width="205.3000030517578" height="77.30000305175781" id="svg_32"/>
		<path d="M83.35000000000002,133.60000000000002 l-8.1,20 c-2,4.8 -3.5,8.1 -4.5,9.9 s-2.4,3.3 -4,4.5 c-2.4,1.8 -5.1,2.8 -8.2,2.8 c-3.3,0 -6,-1 -8,-3.1 s-3.1,-4.8 -3.1,-8.1 c0,-4.4 1.6,-8.2 4.9,-11.5 c1.7000000000000002,-1.8 3.9,-3.2 6.5,-4.3 s5.2,-1.6 7.7,-1.6 c1.2,0 2.2,0.30000000000000004 3,0.8 s1.1,1.3 1.1,2.2 c0,1 -0.4,1.7000000000000002 -1.2,2.3 c-0.5,0.30000000000000004 -1.4,0.6000000000000001 -2.7,0.7000000000000001 c-3.1,0.30000000000000004 -5.6,1 -7.5,2.1 c-1.6,1 -2.9,2.2 -3.8,3.8 s-1.4,3.1 -1.4,4.9 c0,1.8 0.5,3.1 1.4,4.1 s2.2,1.5 3.8,1.5 c1.9,0 3.5,-0.8 4.9,-2.4 s2.9,-4.5 4.6,-8.6 l8.1,-20 h-4.6 c-2.2,0 -3.2,-0.8 -3.2,-2.3 c0,-1 0.4,-1.8 1.1,-2.4 s1.8,-0.9 3.2,-0.9 h15.4 h0.6000000000000001 l1.6,0.4 c0.7000000000000001,0.4 1,1 1,1.9 c0,1 -0.4,1.8 -1.1,2.4 s-1.8,0.9 -3.2,0.9 H83.35000000000002 z" id="svg_33"/>
		<path d="M96.64999999999998,141.7 c2.3,0 4.1,0.7000000000000001 5.6,2.2 s2.2,3.3 2.2,5.5 c0,1.7000000000000002 -0.4,3.3 -1.1,5 s-1.8,3 -3,3.9 c-0.8,0.6000000000000001 -1.7000000000000002,1.1 -2.5,1.3 s-2.1,0.4 -3.6,0.4 c-2.5,0 -4.3,-0.30000000000000004 -5.2,-0.9 c-2.1,-1.4 -3.1,-3.6 -3.1,-6.4 c0,-3 1.1,-5.5 3.2,-7.7 S93.64999999999998,141.7 96.64999999999998,141.7 zM96.05000000000001,146.7 c-1.2,0 -2.2,0.6000000000000001 -3.2,1.7000000000000002 s-1.4,2.4 -1.4,3.8 c0,1.8 1,2.7 3,2.7 c1.2,0 2.1,-0.4 2.7,-1.1 c1.1,-1.2 1.6,-2.6 1.6,-4.1 c0,-0.9 -0.30000000000000004,-1.6 -0.8,-2.2 S96.85000000000002,146.7 96.05000000000001,146.7 z" id="svg_34"/>
		<path d="M121.75,154.89999999999998 h2.7 c2,0 3,0.7000000000000001 3,2.1 c0,1 -0.4,1.7000000000000002 -1.1,2.2 s-1.7000000000000002,0.8 -2.9,0.8 h-3.2 c-1.2,0 -2.1,-0.5 -2.7,-1.5 c-1,1 -2.1,1.5 -3.2,1.5 h-3 c-1.7000000000000002,0 -3.1,-0.6000000000000001 -4.2,-1.8 s-1.6,-2.8 -1.6,-4.7 c0,-3 1,-5.7 3.1,-8.1 s4.4,-3.6 6.9,-3.6 c1.9,0 3.4,0.7000000000000001 4.5,2 l5.2,-12.8 c0.9,-2.2 2.1,-3.3 3.7,-3.3 c0.7000000000000001,0 1.2,0.2 1.7000000000000002,0.6000000000000001 s0.7000000000000001,1 0.7000000000000001,1.6 c0,0.5 -0.1,1 -0.4,1.6 l-0.30000000000000004,0.6000000000000001 L121.75,154.89999999999998 zM113.14999999999998,155 h0.9 c1.1,0 1.8,-0.4 2.1,-1.3 l1.8,-4.3 c0.2,-0.5 0.30000000000000004,-0.9 0.30000000000000004,-1.2 c0,-0.5 -0.2,-0.9 -0.6000000000000001,-1.2 s-0.9,-0.5 -1.5,-0.5 c-1.2,0 -2.4,0.7000000000000001 -3.4,2 s-1.6,2.8 -1.6,4.4 C111.14999999999998,154.3 111.85000000000002,155 113.14999999999998,155 z" id="svg_35"/>
		<path d="M139.14999999999998,141.7 c2.3,0 4.1,0.7000000000000001 5.6,2.2 s2.2,3.3 2.2,5.5 c0,1.7000000000000002 -0.4,3.3 -1.1,5 s-1.8,3 -3,3.9 c-0.8,0.6000000000000001 -1.7000000000000002,1.1 -2.5,1.3 s-2.1,0.4 -3.6,0.4 c-2.5,0 -4.3,-0.30000000000000004 -5.2,-0.9 c-2.1,-1.4 -3.1,-3.6 -3.1,-6.4 c0,-3 1.1,-5.5 3.2,-7.7 S136.25,141.7 139.14999999999998,141.7 zM138.64999999999998,146.7 c-1.2,0 -2.2,0.6000000000000001 -3.2,1.7000000000000002 s-1.4,2.4 -1.4,3.8 c0,1.8 1,2.7 3,2.7 c1.2,0 2.1,-0.4 2.7,-1.1 c1.1,-1.2 1.6,-2.6 1.6,-4.1 c0,-0.9 -0.30000000000000004,-1.6 -0.8,-2.2 S139.45,146.7 138.64999999999998,146.7 z" id="svg_36"/>
		<path d="M150.45,148 h3.8 h0.4 c1.5,0 2.2,0.7000000000000001 2.2,2 c0,1.3 -0.7000000000000001,2 -2.2,2 h-0.4 h-3.8 h-0.4 c-0.7000000000000001,0 -1.2,-0.2 -1.6,-0.6000000000000001 s-0.6000000000000001,-0.9 -0.6000000000000001,-1.5 c0,-0.6000000000000001 0.2,-1.1 0.6000000000000001,-1.4 s0.9,-0.6000000000000001 1.6,-0.6000000000000001 H150.45 z" id="svg_37"/>
		<path d="M192.95000000000005,148 h-6.5 l-7.8,13.4 c-3.7,6.4 -8,9.5 -13,9.5 c-3.1,0 -5.7,-1.1 -7.7,-3.3 s-3.1,-4.9 -3.1,-8.2 c0,-2.7 0.8,-5.2 2.4,-7.7 s3.8,-4.5 6.6,-6.1 c2.1,-1.2 4.4,-2 6.9,-2.5 s5.9,-0.7000000000000001 10.1,-0.7000000000000001 h1.7000000000000002 l1.9,-3.4 c2.6,-4.7 5.7,-7.9 9.4,-9.5 c2.4,-1 5.5,-1.5 9.4,-1.5 c1,0 1.8,0.2 2.3,0.7000000000000001 s0.8,1 0.8,1.8 c0,0.4 -0.1,0.8 -0.30000000000000004,1.3 l-0.2,0.5 l-4,10.1 h1.8 h0.6000000000000001 c1.8,0 2.6,0.8 2.6,2.3 c0,0.9 -0.4,1.7000000000000002 -1.1,2.4 s-1.6,1 -2.6,1 h-0.6000000000000001 h-3 l-2.6,6.4 h3.8 h0.6000000000000001 c1.8,0 2.6,0.8 2.6,2.3 c0,0.9 -0.4,1.7000000000000002 -1.1,2.4 s-1.6,1 -2.6,1 H199.75 h-5 c-1.3,0 -2.4,-0.30000000000000004 -3.3,-1 s-1.3,-1.6 -1.3,-2.7 c0,-0.9 0.30000000000000004,-2.1 1,-3.7 L192.95000000000005,148 zM179.35000000000002,148 h-2 c-4.5,0 -8,0.8 -10.6,2.5 c-1.7000000000000002,1.1 -3,2.4 -4,4 c-1,1.6 -1.5,3.2 -1.5,4.8 c0,1.5 0.5,2.8 1.4,3.8 c1,1.1 2.1,1.6 3.5,1.6 c2.4,0 4.4,-1.6 6.3,-4.7 L179.35000000000002,148 zM195.25,142.39999999999998 l3.4,-8.3 c-1.7000000000000002,0.1 -3.1,0.6000000000000001 -4.2,1.6 s-2.4,2.7 -3.9,5.1 l-1,1.6 H195.25 z" id="svg_38"/>
		<path d="M212.54999999999995,158.10000000000002 l-6.1,15 c-0.8,2.1 -2.1,3.1 -3.7,3.1 c-0.6000000000000001,0 -1.2,-0.2 -1.6,-0.6000000000000001 s-0.7000000000000001,-0.9 -0.7000000000000001,-1.5 c0,-0.5 0.2,-1.2 0.6000000000000001,-2.2 l11.3,-27.8 c0.6000000000000001,-1.4 1.6,-2.1 3,-2.1 c1,0 1.8,0.5 2.3,1.4 c1.1,-1.2 2.4,-1.7000000000000002 4,-1.7000000000000002 c1.6,0 3,0.6000000000000001 4,1.9 s1.5,2.9 1.5,4.9 c0,3.8 -1.2,7 -3.6,9.4 c-0.8,0.8 -1.6,1.3 -2.4,1.6 s-2,0.4 -3.5,0.4 c-1.6,0 -2.7,-0.1 -3.3,-0.30000000000000004 S213.25,158.89999999999998 212.54999999999995,158.10000000000002 zM214.54999999999995,153.39999999999998 c0.4,0.7000000000000001 0.8,1.1 1.1,1.3 s0.9,0.30000000000000004 1.7000000000000002,0.30000000000000004 c1.1,0 2,-0.4 2.6,-1.2 c1.3,-1.7000000000000002 1.9,-3.4 1.9,-5.2 c0,-1.5 -0.7000000000000001,-2.3 -2.2,-2.3 c-1.6,0 -2.7,0.9 -3.4,2.7 c-0.1,0.2 -0.1,0.4 -0.2,0.5 L214.54999999999995,153.39999999999998 z" id="svg_39"/>
		<path d="M233.54999999999995,158.10000000000002 l-6.1,15 c-0.8,2.1 -2.1,3.1 -3.7,3.1 c-0.6000000000000001,0 -1.2,-0.2 -1.6,-0.6000000000000001 s-0.7000000000000001,-0.9 -0.7000000000000001,-1.5 c0,-0.5 0.2,-1.2 0.6000000000000001,-2.2 l11.3,-27.8 c0.6000000000000001,-1.4 1.6,-2.1 3,-2.1 c1,0 1.8,0.5 2.3,1.4 c1.1,-1.2 2.4,-1.7000000000000002 4,-1.7000000000000002 c1.6,0 3,0.6000000000000001 4,1.9 s1.5,2.9 1.5,4.9 c0,3.8 -1.2,7 -3.6,9.4 c-0.8,0.8 -1.6,1.3 -2.4,1.6 s-2,0.4 -3.5,0.4 c-1.6,0 -2.7,-0.1 -3.3,-0.30000000000000004 S234.14999999999998,158.89999999999998 233.54999999999995,158.10000000000002 zM235.45000000000005,153.39999999999998 c0.4,0.7000000000000001 0.8,1.1 1.1,1.3 s0.9,0.30000000000000004 1.7000000000000002,0.30000000000000004 c1.1,0 2,-0.4 2.6,-1.2 c1.3,-1.7000000000000002 1.9,-3.4 1.9,-5.2 c0,-1.5 -0.7000000000000001,-2.3 -2.2,-2.3 c-1.6,0 -2.7,0.9 -3.4,2.7 c-0.1,0.2 -0.1,0.4 -0.2,0.5 L235.45000000000005,153.39999999999998 z" id="svg_40"/>
	</g>
	<g id="svg_41">
	</g>
	<g id="svg_42">
	</g>
	<g id="svg_43">
	</g>
	<g id="svg_44">
	</g>
	<g id="svg_45">
	</g>
	<g id="svg_46">
	</g>
</g></g></svg>